<?xml version="1.0" encoding="UTF-8"?>
<svg xmlns="http://www.w3.org/2000/svg" width="400" height="600"><path d="M250 200 l60 -60 l-120 -120 " fill="none" stroke="black" stroke-width="7" fill-rule="none" /><ellipse cx="190" cy="30" rx="20" ry="30" fill="white" stroke="black" stroke-width="3" /><path d="
        M 190 160
        C 190 160, 270 210 , 170, 370
        C 180, 370, 350 210 , 190 160
        " fill="red" stroke="black" stroke-width="5" fill-rule="nonzero" /><path d="
        M 40 390
        L 190 390
        C 170 390, 220 390, 250 330
        Z
        " fill="red" stroke="black" stroke-width="5" fill-rule="nonzero" /><path d="
        M 100 100 
        C 100 100, 170 170, 70 380
        L 180 380
        C 310 380, 350 100, 140 100
        Z

        M 170 170
        C 170 170, 200 230, 140 350
        L 160 350
        C 260 350, 280 170, 190 170
        Z
        " fill="red" stroke="black" stroke-width="5" fill-rule="evenodd" /><path d="
        M 100 100 
        L 80 110
        C 90 110, 150 180, 40 390
        L 70 380
        C 70 380, 170 170, 100 100
        " fill="red" stroke="black" stroke-width="5" fill-rule="nonzero" /><path d="M110 210 l-70 -70 l120 -120 " fill="none" stroke="black" stroke-width="7" fill-rule="none" /><ellipse cx="160" cy="30" rx="20" ry="30" fill="white" stroke="black" stroke-width="3" /><ellipse cx="160" cy="160" rx="23" ry="30" fill="white" stroke="black" stroke-width="3" /><ellipse cx="170" cy="170" rx="10" ry="12" fill="black" stroke="black" stroke-width="3" /><ellipse cx="210" cy="170" rx="23" ry="30" fill="white" stroke="black" stroke-width="3" /><ellipse cx="220" cy="180" rx="10" ry="12" fill="black" stroke="black" stroke-width="3" /><path d="M230 365 l60 60 l-60 60" fill="none" stroke="black" stroke-width="7" fill-rule="none" /><path d="M130 380 l-60 60 l60 60" fill="none" stroke="black" stroke-width="7" fill-rule="none" /><ellipse cx="250" cy="495" rx="30" ry="15" fill="white" stroke="black" stroke-width="3" /><ellipse cx="110" cy="510" rx="30" ry="15" fill="white" stroke="black" stroke-width="3" />
</svg>